<?xml version="1.0" standalone="no"?>
<!DOCTYPE svg PUBLIC "-//W3C//DTD SVG 20010904//EN"
 "http://www.w3.org/TR/2001/REC-SVG-20010904/DTD/svg10.dtd">
<svg version="1.0" xmlns="http://www.w3.org/2000/svg"
 width="195.000000pt" height="195.000000pt" viewBox="0 0 195.000000 195.000000"
 preserveAspectRatio="xMidYMid meet">

<g transform="translate(0.000000,195.000000) scale(0.100000,-0.100000)"
fill="#000000" stroke="none">
<path d="M820 1735 c-363 -77 -621 -377 -638 -741 -10 -227 60 -419 211 -581
74 -79 162 -143 253 -184 l68 -31 23 27 c20 22 23 37 23 106 l0 79 -68 0 c-96
0 -147 27 -187 100 -16 30 -51 76 -77 102 -27 27 -48 50 -48 53 0 3 19 5 42 5
38 0 46 -5 113 -75 l71 -75 66 0 c65 0 98 14 98 42 0 6 11 26 25 44 l25 33
-37 6 c-77 12 -177 49 -217 80 -91 69 -131 154 -143 297 -7 95 7 157 52 223
31 47 33 53 25 100 -7 46 -1 116 15 158 12 30 67 21 160 -27 75 -39 90 -43
118 -35 58 17 219 22 296 10 l74 -12 66 35 c74 38 135 58 157 49 22 -8 37 -81
31 -152 -5 -60 -3 -66 28 -106 48 -63 69 -154 62 -262 -13 -202 -99 -308 -279
-343 -29 -6 -63 -13 -76 -16 l-23 -5 28 -36 c27 -36 28 -40 33 -204 6 -212 8
-216 105 -175 227 97 408 320 459 568 85 413 -169 823 -579 934 -83 22 -273
27 -355 9z"/>
</g>
</svg>
