<?xml version="1.0" encoding="utf-8"?>
<!-- Svg Vector Icons : http://www.onlinewebfonts.com/icon -->
<!DOCTYPE svg PUBLIC "-//W3C//DTD SVG 1.1//EN" "http://www.w3.org/Graphics/SVG/1.1/DTD/svg11.dtd">
<svg version="1.1" xmlns="http://www.w3.org/2000/svg" xmlns:xlink="http://www.w3.org/1999/xlink" x="0px" y="0px" viewBox="0 0 1000 1000" enable-background="new 0 0 1000 1000" xml:space="preserve">
<metadata> Svg Vector Icons : http://www.onlinewebfonts.com/icon </metadata>
<g><path d="M500,990C229.4,990,10,770.6,10,500C10,229.4,229.4,10,500,10c270.6,0,490,219.4,490,490C990,770.6,770.6,990,500,990L500,990z M928.8,500.1h-245c0,65-4.9,127-13.5,183.7h215.4C912.5,628,928.8,566.2,928.8,500.1L928.8,500.1z M849.8,745H659c-15.3,70.2-37,129.5-62.9,172.1C700.8,892.9,789.8,830,849.8,745L849.8,745z M379.3,438.8h241.4c-1.8-43.5-5.8-84.3-11-122.6H390.2C385.1,354.5,381.1,395.3,379.3,438.8L379.3,438.8z M377.5,500.1c0,66,4.6,127.8,12.3,183.7h220.5c7.6-55.9,12.2-117.7,12.2-183.7H377.5L377.5,500.1z M500,928.8c41.6,0,78.2-72.9,100.3-183.8H399.6C421.8,855.8,458.4,928.8,500,928.8L500,928.8z M403.9,917C377.9,874.5,356.3,815.2,341,745H150.2C210.1,830,299.2,892.9,403.9,917L403.9,917z M71.3,499.9L71.3,499.9L71.3,499.9L71.3,499.9L71.3,499.9z M114.3,683.8h215.4c-8.7-56.7-13.5-118.6-13.5-183.7h-245C71.3,566.2,87.5,628,114.3,683.8L114.3,683.8z M317.8,438.8c2-43,6.3-83.9,12.2-122.6H113.7c-18.1,38.1-30.9,79.2-37.2,122.6H317.8L317.8,438.8z M149.7,255h191.6c15.3-70.1,36.7-129.5,62.6-172.1C299,107.1,209.3,169.8,149.7,255L149.7,255z M500,71.2c-41.5,0-77.5,73.3-99.5,183.8h199.1C577.5,144.5,541.5,71.2,500,71.2L500,71.2z M596.1,82.9c25.9,42.5,47.3,102,62.6,172.1h191.6C790.6,169.8,701,107.1,596.1,82.9L596.1,82.9z M886.2,316.3H670c5.9,38.7,10.2,79.6,12.3,122.6h241.2C917.2,395.5,904.4,354.3,886.2,316.3L886.2,316.3z"/></g>
</svg>